<?xml version="1.0" encoding="UTF-8" standalone="no"?><!DOCTYPE svg PUBLIC "-//W3C//DTD SVG 1.1//EN" "http://www.w3.org/Graphics/SVG/1.1/DTD/svg11.dtd"><svg width="100%" height="100%" viewBox="0 0 105 105" version="1.1" xmlns="http://www.w3.org/2000/svg" xmlns:xlink="http://www.w3.org/1999/xlink" xml:space="preserve" xmlns:serif="http://www.serif.com/" style="fill-rule:evenodd;clip-rule:evenodd;stroke-linejoin:round;stroke-miterlimit:2;"><g><g><g><path d="M75.056,37.496c0.629,0.099 1.963,0.1 2.527,0.444c1.2,0.736 -9.194,15.015 1.115,14.27c16.635,-1.211 -4.218,7.453 -9.237,1.76c-1.922,-2.18 4.071,-11.848 3.432,-12.03c-2.462,-0.689 -5.786,2.155 -7.993,7.967c-2.854,7.523 -2.414,17.684 -8.26,24.081c-4.213,4.601 -7.119,7.659 -26.537,6.576c-1.175,-0.069 9.332,-10.712 10.483,-10.268c9.124,3.533 14.431,-14.709 17.486,-20.197c6.559,-11.766 15.631,-12.826 16.984,-12.603Z" style="fill:url(#_Radial1);fill-rule:nonzero;"/><path d="M40.15,70.876c-9.338,12.524 -22.067,17.056 -32.391,8.309c-10.335,-8.758 -10.622,-24.083 0.223,-32.654c12.537,-9.899 19.715,10.787 15.45,9.765c-6.999,-1.679 -12.961,9.205 -4.076,11.334c5.805,1.387 12.152,-3.521 18.302,-9.798c5.853,-5.976 18.828,-25.607 18.828,-25.607c0,0 5.028,1.38 4.742,1.646c0.021,0.012 -9.964,22.09 -21.078,37.005Zm41.331,-32.034c-10.414,-1.477 -12.015,-2.112 -24.984,-6.605c-12.624,-4.373 -21.282,1.763 -13.607,15.289c2.624,4.629 -23.472,2.303 -12.806,-12.954c4.918,-7.037 14.495,-9.179 27.539,-4.861c13.348,4.427 22.158,5.62 26.232,5.659c10.123,0.095 13.536,-4.408 13.822,-4.639c0.603,-0.509 0.963,4.801 -3.471,7.272c-2.66,1.495 -10.932,1.09 -12.725,0.839Z" style="fill:url(#_Radial2);fill-rule:nonzero;"/></g><path d="M66.62,59.626c-0.136,2.328 -0.417,4.641 -0.832,6.927c-1.537,8.021 -5.942,13.569 -11.417,17.166c-2.752,1.695 -5.467,2.73 -8.481,3.582c-3.751,1.025 -7.652,1.377 -11.425,0.397c-0.559,-0.135 -1.138,-0.244 -1.7,-0.029c-0.541,0.202 -1.001,0.65 -1.532,0.917c-1.313,0.764 -2.687,1.411 -3.925,1.917c-2.539,0.998 -5.267,1.283 -7.906,0.883c-2.763,-0.505 -5.577,-2.187 -7.973,-4.176c-2.284,-1.833 -4.22,-4.258 -6.472,-6.117c1.742,2.139 3.242,4.611 5.215,6.441c2.384,2.183 5.135,3.865 8.041,4.604c3.537,0.758 7.203,0.029 10.505,-1.686c1.072,-0.482 2.469,-1.349 3.303,-1.884c0.812,-0.368 1.669,-0.023 2.496,0.14c4.096,0.931 8.31,0.259 12.313,-1.023c3.108,-1.032 6.199,-2.361 8.924,-4.522c5.127,-4.041 10.082,-10.748 10.757,-18.531c0.16,-1.654 0.197,-3.336 0.109,-5.006Z" style="fill:url(#_Radial3);fill-rule:nonzero;"/><path d="M99.48,28.856c-1.942,0.183 -3.672,1.131 -5.486,1.738c-2.882,1.032 -6.092,2.029 -9.349,2.126c-3.915,0.185 -7.658,-0.422 -11.341,-1.558c-4.307,-1.258 -8.592,-2.59 -12.798,-4.123c-4.074,-1.489 -8.103,-3.179 -12.381,-4.088c-5.775,-1.293 -12.091,-1.162 -17.518,1.329c-5.284,2.386 -9.727,7.438 -9.892,13.239c-0.15,3.144 0.95,6.31 2.899,8.839c1.126,1.482 2.583,2.693 4.063,3.84c1.416,1.051 2.842,2.102 4.446,2.879c0.698,0.367 1.497,0.491 2.195,0.837c-0.62,-0.462 -1.385,-0.723 -2.016,-1.195c-1.275,-0.891 -2.416,-1.929 -3.601,-2.914c-2.056,-1.703 -4.166,-3.428 -5.449,-5.781c-3.387,-5.835 -1.841,-12.831 3.251,-16.934c5.587,-4.374 13.859,-5.027 20.848,-3.447c6.006,1.317 11.56,4.016 17.408,5.819c3.65,1.157 7.3,2.356 11.029,3.249c2.812,0.63 5.703,0.858 8.588,0.695c3.158,-0.161 6.215,-1.128 9.162,-2.18c1.584,-0.526 3.016,-1.285 4.553,-1.557c5.008,-0.969 7.18,2.302 5.845,6.78c-1.173,3.441 -3.986,4.22 -7.737,5.54c-0.813,0.278 -1.638,0.535 -2.473,0.75c0.461,-0.07 0.922,-0.151 1.373,-0.252c1.846,-0.47 3.746,-0.939 5.432,-1.824c2.348,-1.397 4.255,-3.73 4.489,-6.449c0.341,-3.65 -1.688,-5.819 -5.54,-5.358Z" style="fill:url(#_Radial4);fill-rule:nonzero;"/></g></g><defs><radialGradient id="_Radial1" cx="0" cy="0" r="1" gradientUnits="userSpaceOnUse" gradientTransform="matrix(55.2337,5.85702,-4.64388,53.0884,22.5652,76.5174)"><stop offset="0" style="stop-color:#f00;stop-opacity:1"/><stop offset="0.32" style="stop-color:#da004f;stop-opacity:1"/><stop offset="1" style="stop-color:#8b00f5;stop-opacity:1"/></radialGradient><radialGradient id="_Radial2" cx="0" cy="0" r="1" gradientUnits="userSpaceOnUse" gradientTransform="matrix(54.868,0.515988,-0.638025,67.8449,23.1202,76.5409)"><stop offset="0" style="stop-color:#f00;stop-opacity:1"/><stop offset="0" style="stop-color:#fe0001;stop-opacity:1"/><stop offset="0.31" style="stop-color:#da004e;stop-opacity:1"/><stop offset="1" style="stop-color:#8b00f5;stop-opacity:1"/></radialGradient><radialGradient id="_Radial3" cx="0" cy="0" r="1" gradientUnits="userSpaceOnUse" gradientTransform="matrix(23.7034,0.222911,-0.278273,29.5904,35.7705,75.959)"><stop offset="0" style="stop-color:#f00;stop-opacity:1"/><stop offset="0" style="stop-color:#fe0001;stop-opacity:1"/><stop offset="0.31" style="stop-color:#da004e;stop-opacity:1"/><stop offset="1" style="stop-color:#8b00f5;stop-opacity:1"/></radialGradient><radialGradient id="_Radial4" cx="0" cy="0" r="1" gradientUnits="userSpaceOnUse" gradientTransform="matrix(32.0028,0.30096,-0.290753,30.9175,62.8586,38.2612)"><stop offset="0" style="stop-color:#f00;stop-opacity:1"/><stop offset="0" style="stop-color:#fe0001;stop-opacity:1"/><stop offset="0.31" style="stop-color:#da004e;stop-opacity:1"/><stop offset="1" style="stop-color:#8b00f5;stop-opacity:1"/></radialGradient></defs></svg>